# xmcd
# 
# Track frame offsets:
#     150
#     19979
#     52959
#     80610
#     96862
#     131392
#     175661
#     196569
#     232649
#     256225
#     278095
#     306614
#     310663
# 
# Disc length: 4414
# 
# Revision: 0
# Processed by: cddbd v1.5.2PL0 Copyright (c) Steve Scherf et al.
# Submitted via: fre:ac v1.1beta1pre3
# 
DISCID=9c113c0d
DTITLE=Luis Robinson y sus Champagne Jumps - Piercing Blues
DYEAR=2003
DGENRE=Blues
TTITLE0=Smell Like Bar-B-Q
TTITLE1=Chitlins Con Carne
TTITLE2=Wednesday Night At The Bull
TTITLE3=Amor De Segunda Mano
TTITLE4=Grape Gelly
TTITLE5=Tengo Un Amor
TTITLE6=Hand Five
TTITLE7=Rock Me Baby
TTITLE8=Hippology
TTITLE9=Rock N'Roll Del Hociquito
TTITLE10=Nelly
TTITLE11=Corre Como Jan
TTITLE12=Más Que Piel y Huesos
EXTD=
EXTT0=
EXTT1=
EXTT2=
EXTT3=
EXTT4=
EXTT5=
EXTT6=
EXTT7=
EXTT8=
EXTT9=
EXTT10=
EXTT11=
EXTT12=
PLAYORDER=
